<?xml version="1.0" standalone="no"?>
<!DOCTYPE svg PUBLIC "-//W3C//DTD SVG 20010904//EN"
 "http://www.w3.org/TR/2001/REC-SVG-20010904/DTD/svg10.dtd">
<svg version="1.0" xmlns="http://www.w3.org/2000/svg"
 width="268.000000pt" height="91.000000pt" viewBox="0 0 268.000000 91.000000"
 preserveAspectRatio="xMidYMid meet">

<g transform="translate(0.000000,91.000000) scale(0.100000,-0.100000)"
fill="#000000" stroke="none">
<path d="M1402 869 c-53 -26 -87 -70 -103 -131 -11 -39 -10 -55 3 -105 9 -32
21 -77 28 -100 19 -76 99 -142 172 -143 15 0 29 -4 33 -9 3 -5 -8 -73 -25
-151 -16 -77 -30 -143 -30 -145 0 -3 15 -5 33 -5 l34 0 28 133 c35 166 35 159
5 168 l-25 7 28 1 c37 1 96 27 126 54 57 52 78 167 46 245 -19 44 -146 169
-192 188 -47 20 -112 17 -161 -7z m157 0 c17 -6 31 -17 31 -24 0 -12 -6 -11
-36 1 -20 8 -41 13 -47 11 -7 -2 7 -10 30 -16 32 -9 44 -18 49 -37 7 -29 50
-65 68 -58 9 3 15 -5 17 -23 6 -42 -1 -75 -15 -70 -6 3 -25 -6 -41 -19 -24
-19 -29 -31 -29 -63 1 -36 -2 -41 -29 -50 -41 -15 -70 -14 -65 1 11 32 -82 64
-109 37 -7 -7 -18 -1 -37 21 -26 31 -34 60 -17 60 18 0 28 54 17 88 -6 18 -15
30 -19 26 -4 -4 -7 0 -7 9 0 23 60 86 67 70 2 -7 17 -13 33 -13 24 0 29 -5 34
-35 9 -47 -15 -84 -58 -87 l-31 -1 32 -4 c20 -3 41 -15 53 -30 18 -23 24 -25
53 -17 27 8 32 15 35 44 2 23 13 43 30 57 15 12 22 22 16 23 -6 0 -19 -9 -28
-19 -16 -17 -21 -18 -49 -6 -21 9 -35 24 -43 49 -12 33 -11 37 7 47 12 6 18
17 15 25 -7 17 27 19 73 3z m166 -148 c27 -39 30 -50 30 -119 0 -63 -4 -84
-23 -114 -59 -95 -220 -122 -323 -54 -35 24 -85 104 -77 126 2 6 31 -16 64
-49 67 -65 100 -77 181 -68 54 6 92 31 115 78 21 39 24 120 6 152 -6 12 -15
39 -18 60 -9 49 5 45 45 -12z m-25 -119 c0 -60 -24 -105 -69 -130 -49 -28
-123 -29 -171 -4 -52 29 -47 39 17 35 46 -4 67 0 103 19 48 24 88 75 97 121 8
40 23 14 23 -41z m-110 -251 c0 -11 -11 -71 -25 -135 -14 -64 -25 -118 -25
-121 0 -3 -11 -5 -25 -5 -21 0 -25 4 -20 23 9 40 55 250 55 254 0 1 9 3 20 3
13 0 20 -7 20 -19z"/>
<path d="M627 806 c-89 -24 -147 -105 -147 -206 0 -131 87 -212 225 -212 138
0 225 81 225 212 0 106 -64 188 -160 209 -63 14 -82 13 -143 -3z m187 -25 c30
-13 54 -34 73 -62 25 -37 28 -52 28 -119 0 -66 -4 -82 -27 -117 -76 -115 -290
-116 -366 -1 -46 70 -41 188 9 253 57 71 181 92 283 46z"/>
<path d="M612 740 c-49 -30 -72 -75 -72 -141 0 -98 63 -159 165 -159 101 0
157 52 163 153 4 72 -16 114 -70 147 -45 27 -141 27 -186 0z m183 -10 c40 -25
65 -74 65 -130 0 -92 -61 -150 -157 -150 -94 0 -153 59 -153 153 0 96 53 147
154 147 41 0 68 -6 91 -20z"/>
<path d="M100 599 l0 -210 33 3 32 3 3 76 3 76 93 5 c138 7 181 40 181 139 0
36 -6 53 -24 73 -34 36 -78 46 -208 46 l-113 0 0 -211z m293 179 c38 -25 54
-86 36 -134 -23 -61 -52 -75 -167 -81 l-101 -6 -3 -76 c-3 -70 -5 -76 -25 -79
l-23 -3 0 201 0 202 128 -3 c101 -3 134 -8 155 -21z"/>
<path d="M160 680 l0 -70 94 0 c90 0 96 1 115 26 25 32 27 61 5 92 -14 20 -23
22 -115 22 l-99 0 0 -70z m205 36 c19 -29 11 -72 -15 -86 -10 -6 -55 -10 -99
-10 l-81 0 0 60 0 60 90 0 c83 0 91 -2 105 -24z"/>
<path d="M990 601 l0 -211 155 0 155 0 0 35 0 35 -120 0 -120 0 -2 173 -3 172
-32 3 -33 3 0 -210z m58 22 l2 -173 120 0 120 0 0 -25 0 -25 -145 0 -145 0 0
201 0 200 23 -3 c22 -3 22 -5 25 -175z"/>
<path d="M96 363 c-8 -27 -56 -262 -56 -273 0 -6 16 -10 35 -10 30 0 36 4 41
28 21 95 14 87 81 90 61 3 72 11 73 55 0 4 -27 7 -60 7 -60 0 -66 4 -54 34 5
12 21 16 74 16 71 0 80 6 80 51 0 18 -8 19 -104 19 -91 0 -105 -2 -110 -17z
m204 -2 c0 -34 -13 -41 -80 -41 -62 0 -68 -2 -74 -22 -12 -45 -8 -48 48 -48
30 0 57 -4 60 -8 11 -19 -13 -31 -69 -34 l-60 -3 -10 -55 c-9 -49 -13 -55 -38
-58 -15 -2 -27 -1 -27 2 0 8 51 249 55 264 5 14 195 18 195 3z"/>
<path d="M955 358 c-16 -74 -55 -261 -55 -269 0 -5 19 -9 43 -9 23 1 56 -2 73
-5 92 -20 164 121 102 200 -19 24 -26 27 -64 22 l-43 -4 6 31 c3 17 6 36 7 41
0 6 -13 11 -31 13 -27 3 -33 -1 -38 -20z m50 -39 c-7 -49 -6 -50 13 -40 59 31
112 -3 112 -71 0 -96 -94 -164 -149 -109 -16 16 -20 17 -25 5 -8 -21 -49 -18
-42 4 2 9 12 55 21 102 28 144 33 160 56 160 19 0 20 -4 14 -51z"/>
<path d="M1001 241 c-26 -26 -37 -86 -21 -106 19 -23 66 -19 84 7 19 27 21 89
4 106 -18 18 -45 15 -67 -7z m53 3 c20 -8 21 -71 2 -97 -18 -24 -63 -22 -71 3
-8 24 2 59 23 83 17 19 22 20 46 11z"/>
<path d="M1439 378 c0 -2 -15 -70 -33 -151 l-33 -148 36 3 35 3 28 130 c35
166 35 165 -2 165 -16 0 -30 -1 -31 -2z m49 -30 c-51 -255 -52 -258 -75 -258
-13 0 -23 4 -23 9 0 12 49 241 55 259 2 6 14 12 26 12 17 0 20 -5 17 -22z"/>
<path d="M1755 358 c-13 -57 -55 -264 -55 -271 0 -5 17 -7 37 -5 37 3 38 5 47
51 l8 47 48 0 c59 0 91 11 119 41 23 25 29 86 11 119 -13 25 -69 40 -147 40
-57 0 -63 -2 -68 -22z m195 -13 c29 -26 27 -86 -4 -122 -21 -24 -32 -28 -93
-31 l-70 -4 -9 -47 c-8 -41 -12 -46 -37 -49 -24 -3 -28 0 -24 15 3 10 13 56
22 103 9 47 21 102 26 124 l10 38 80 -4 c57 -3 84 -10 99 -23z"/>
<path d="M1803 278 l-9 -43 35 -3 c53 -5 80 5 87 33 11 44 -1 55 -55 55 l-50
0 -8 -42z m105 9 c6 -29 -17 -47 -59 -47 -40 0 -44 5 -33 48 6 20 12 23 48 20
30 -2 42 -8 44 -21z"/>
<path d="M2410 354 c-6 -14 -10 -33 -10 -43 0 -14 -6 -17 -29 -13 -16 2 -38
-1 -50 -7 -14 -8 -21 -8 -21 -1 0 5 -13 10 -30 10 -23 0 -31 -5 -35 -22 -3
-13 -13 -63 -24 -111 l-19 -88 36 3 c36 3 37 4 48 61 13 68 38 100 72 94 19
-4 24 1 29 25 3 16 8 27 10 24 4 -4 -21 -145 -33 -188 -4 -15 1 -18 29 -18 32
0 36 3 44 37 12 51 29 52 44 4 12 -39 14 -41 52 -41 27 0 38 4 34 13 -3 6 -15
35 -27 64 l-22 51 39 36 c21 19 41 36 46 36 4 0 7 5 7 10 0 6 -17 10 -37 10
-29 0 -45 -8 -76 -37 -36 -35 -38 -36 -33 -13 16 72 26 116 26 123 0 4 -14 7
-30 7 -24 0 -33 -6 -40 -26z m52 10 c3 -3 0 -31 -8 -62 -22 -95 -20 -99 32
-53 41 36 84 54 84 35 0 -4 -17 -21 -37 -39 l-38 -32 23 -54 c28 -68 27 -69
-3 -69 -14 0 -25 4 -25 9 0 5 -7 25 -16 46 -14 35 -16 36 -33 21 -10 -10 -21
-30 -25 -47 -4 -22 -11 -29 -30 -29 l-24 0 18 83 c10 45 23 108 30 140 9 43
16 57 29 57 10 0 20 -3 23 -6z m-172 -94 l0 -20 20 20 c11 11 29 20 40 20 13
0 20 -7 20 -20 0 -15 -7 -20 -25 -20 -31 0 -62 -30 -71 -67 -19 -84 -21 -88
-42 -91 -12 -2 -22 1 -22 6 0 12 30 162 35 180 7 21 45 14 45 -8z"/>
<path d="M817 331 c-4 -16 -14 -30 -25 -33 -27 -7 -36 -48 -11 -48 15 0 18 -5
14 -22 -28 -123 -25 -143 19 -154 39 -9 59 -1 67 28 6 24 4 28 -13 28 -19 0
-20 4 -14 52 9 62 12 68 35 68 27 0 35 41 10 47 -16 5 -19 11 -14 34 6 28 5
29 -28 29 -30 0 -35 -4 -40 -29z m57 -11 c-5 -23 -3 -30 10 -30 9 0 16 -7 16
-15 0 -8 -9 -15 -19 -15 -23 0 -29 -15 -37 -86 -6 -47 -4 -54 10 -54 25 0 16
-34 -10 -38 -11 -2 -30 5 -42 15 -21 17 -21 20 -7 78 18 76 18 85 0 85 -8 0
-15 7 -15 15 0 8 9 15 19 15 13 0 21 9 26 30 5 23 12 30 31 30 21 0 23 -3 18
-30z"/>
<path d="M335 278 c-32 -25 -55 -74 -55 -117 0 -68 80 -108 152 -78 45 19 69
54 75 112 5 39 2 47 -25 75 -39 38 -104 42 -147 8z m132 -3 c64 -45 20 -175
-64 -191 -61 -11 -113 28 -113 85 0 90 108 154 177 106z"/>
<path d="M365 235 c-17 -16 -25 -35 -25 -58 0 -40 15 -57 52 -57 47 0 78 89
42 124 -22 22 -41 20 -69 -9z m63 3 c17 -17 15 -59 -4 -86 -19 -28 -67 -27
-72 1 -12 60 42 119 76 85z"/>
<path d="M564 267 c-30 -28 -37 -42 -41 -83 -4 -43 -2 -55 18 -78 31 -34 82
-43 132 -22 29 12 43 26 58 62 39 87 1 154 -87 154 -36 0 -51 -6 -80 -33z
m129 14 c53 -20 58 -104 11 -161 -42 -50 -138 -49 -164 1 -26 47 5 139 53 159
29 12 70 12 100 1z"/>
<path d="M601 234 c-36 -46 -26 -114 18 -114 34 0 48 10 60 43 15 39 14 63 -5
81 -23 23 -50 19 -73 -10z m69 1 c15 -18 6 -78 -15 -95 -8 -6 -24 -10 -37 -8
-19 2 -24 10 -26 40 -5 58 47 100 78 63z"/>
<path d="M1199 271 c-16 -16 -29 -34 -29 -40 0 -17 67 -13 74 4 8 22 58 20 54
-2 -2 -13 -17 -20 -56 -24 -65 -8 -92 -31 -92 -75 0 -44 35 -69 82 -60 18 4
49 6 69 6 l36 -1 16 76 c21 95 21 101 -3 125 -15 15 -33 20 -71 20 -43 0 -55
-5 -80 -29z m139 3 c26 -18 26 -22 6 -113 -13 -57 -20 -71 -35 -71 -10 0 -19
4 -19 9 0 6 -12 3 -27 -5 -54 -27 -103 -11 -103 35 0 35 26 59 71 67 78 13 80
14 77 37 -2 17 -11 23 -36 25 -22 2 -34 -2 -38 -12 -8 -20 -44 -21 -44 -2 0
24 41 46 85 46 22 0 51 -7 63 -16z"/>
<path d="M1253 178 c-45 -10 -62 -33 -39 -56 19 -19 62 -8 76 19 20 36 9 46
-37 37z m37 -15 c0 -14 -34 -43 -51 -43 -27 0 -35 21 -14 37 19 13 65 18 65 6z"/>
<path d="M2034 288 c-18 -8 -44 -46 -44 -63 0 -13 68 -3 74 10 8 22 58 20 54
-2 -2 -14 -17 -20 -57 -25 -62 -7 -93 -32 -93 -74 0 -40 37 -67 82 -60 19 3
51 6 71 6 l36 -1 16 76 c21 95 21 101 -3 125 -22 22 -98 27 -136 8z m124 -14
c26 -18 26 -22 6 -113 -13 -57 -20 -71 -35 -71 -10 0 -19 4 -19 10 0 5 -16 2
-35 -7 -49 -24 -89 -9 -93 33 -4 39 17 61 66 69 80 13 83 15 80 38 -2 17 -11
23 -36 25 -22 2 -34 -2 -38 -12 -8 -20 -44 -21 -44 -2 0 24 41 46 85 46 22 0
51 -7 63 -16z"/>
<path d="M2073 178 c-45 -10 -62 -33 -39 -56 19 -19 62 -8 76 19 20 36 9 46
-37 37z m25 -30 c-18 -27 -45 -35 -62 -18 -14 15 18 40 52 40 23 0 24 -1 10
-22z"/>
</g>
</svg>
