<?xml version="1.0" encoding="UTF-8"?><svg xmlns="http://www.w3.org/2000/svg" viewBox="0 0 1850.27 1022.24"><defs><style>.d{fill:#cc8526;}</style></defs><g id="a"/><g id="b"><g id="c"><g><path class="d" d="M2.09,39.95c1.09,.84,2.08,1.12,2.94,1.12,1.84,0,3.03-1.32,3.05-1.34,.29-.32,.26-.81-.07-1.1-.32-.28-.82-.25-1.1,.07-.06,.07-1.6,1.76-3.87,.01-.8-.62-1.35-1.58-1.46-2.58-.11-.98,.2-1.94,.9-2.78,.75-.9,2.42-1.56,4.24-1.68,1.05-.07,2.83,.01,4.59,.96,.55,.46,1.11,.88,1.71,1.23h.02c.97,.58,2.02,.94,3.16,.94,1.07,0,2.23-.31,3.49-1.07,2.37-1.42,2.5-4.23,1.41-6.15-1.11-1.96-3.44-2.67-5.3-1.62-1.89,1.07-2.56,3.48-1.49,5.37,.21,.37,.69,.51,1.06,.3,.37-.21,.51-.69,.29-1.06-.65-1.14-.24-2.6,.9-3.25,1.1-.62,2.5-.17,3.18,1.02,.6,1.06,.87,3.02-.86,4.05-1.92,1.16-3.5,1.01-4.98,.19-.56-.51-1.15-.93-1.74-1.26-.67-.58-1.34-1.25-2.03-1.95-1.56-1.57-3.17-3.18-5.09-4.01,10.11-6.65,15.96-1.4,16.22-1.16l6.94,6.16c.3,.27,.77,.26,1.06-.02,.29-.29,.32-.75,.06-1.06l-5.96-7.14s-.02-.02-.03-.03c-.24-.25-5.48-6.1,1.17-16.21,.83,1.92,2.44,3.52,4.01,5.09,.67,.66,1.31,1.31,1.88,1.95,.23,.33,.49,.65,.78,.97,1.25,1.72,1.73,3.53,.35,5.83-1.03,1.72-2.99,1.46-4.05,.86-1.2-.68-1.65-2.07-1.02-3.18,.31-.56,.82-.95,1.44-1.13,.61-.17,1.26-.09,1.81,.22,.37,.21,.85,.08,1.06-.29,.21-.38,.08-.85-.29-1.06-.92-.52-1.98-.65-3-.37-1.01,.28-1.86,.94-2.38,1.86-1.05,1.86-.35,4.19,1.61,5.3,1.92,1.09,4.73,.96,6.15-1.41,1.81-3.01,1.09-5.42-.41-7.5-.03-.05-.06-.1-.1-.15,0,0-.01-.01-.02-.02-.21-.29-.44-.57-.68-.84-1.37-1.98-1.48-4.13-1.4-5.32,.11-1.83,.77-3.49,1.67-4.24,.83-.7,1.8-1,2.78-.9,1,.11,1.96,.65,2.58,1.46,1.7,2.2,.17,3.71-.02,3.87-.32,.29-.35,.77-.07,1.1,.29,.32,.78,.35,1.1,.07,.03-.02,2.84-2.57,.22-5.99-.88-1.15-2.21-1.9-3.64-2.05-1.42-.16-2.78,.28-3.95,1.25-1.23,1.03-2.09,3.07-2.23,5.34-.04,.64-.03,1.51,.14,2.5-1.55-1.57-2.98-3.22-3.28-5.09-.05-.31-.28-.56-.59-.63-.31-.07-.62,.05-.81,.3-2.52,3.43-5.33,8.69-4.35,14.21,.41,2.3,1.34,3.9,1.91,4.7-.8-.57-2.4-1.51-4.7-1.92-5.52-.98-10.77,1.83-14.21,4.35-.25,.19-.37,.51-.3,.81,.07,.31,.33,.54,.64,.59,2.08,.33,3.87,2.05,5.6,3.78-.83-.12-1.58-.12-2.14-.08-2.27,.14-4.31,1-5.34,2.23-.97,1.17-1.4,2.53-1.25,3.95,.16,1.43,.91,2.76,2.05,3.64Z"/><path class="d" d="M4.93,21c.43,0,.72-.35,.72-.78V6.83h13.35c.43,0,.78-.29,.78-.72s-.35-.72-.78-.72H5.14c-.43,0-.93,.53-.93,.96v13.87c0,.43,.29,.78,.72,.78Z"/><path class="d" d="M20.19,1016.13c0-.43-.35-.72-.78-.72H5.65v-13.14c0-.43-.29-.78-.72-.78s-.72,.35-.72,.78v13.87c0,.43,.9,.71,1.33,.71h13.87c.43,0,.78-.29,.78-.72Z"/><path class="d" d="M1811.97,8.08c.32,.28,.81,.25,1.09-.07,.29-.32,.26-.81-.06-1.1-.18-.16-1.71-1.67-.02-3.87,.62-.8,1.58-1.35,2.58-1.46,.98-.11,1.95,.2,2.78,.9,.91,.75,1.56,2.42,1.68,4.24,.08,1.2-.03,3.35-1.4,5.32-.24,.28-.47,.56-.68,.85,0,0,0,0-.01,.01-.04,.05-.08,.09-.11,.14-1.5,2.09-2.22,4.49-.41,7.51,1.43,2.37,4.23,2.5,6.16,1.41,.92-.52,1.6-1.34,1.91-2.31,.33-1.01,.22-2.08-.3-2.99-.52-.92-1.36-1.58-2.38-1.86-1.01-.28-2.08-.15-2.99,.37-.37,.21-.51,.69-.3,1.06,.21,.38,.69,.51,1.06,.29,.56-.31,1.2-.39,1.81-.22,.62,.17,1.12,.57,1.44,1.13,.3,.53,.37,1.15,.17,1.74-.19,.6-.62,1.11-1.19,1.44-1.06,.6-3.02,.86-4.05-.86-1.38-2.3-.9-4.1,.35-5.83,.29-.32,.55-.65,.78-.98,.56-.64,1.21-1.29,1.88-1.95,1.57-1.57,3.18-3.17,4.01-5.09,6.66,10.11,1.41,15.96,1.17,16.21,0,.01-.02,.02-.03,.04l-5.96,7.14c-.26,.31-.24,.77,.05,1.06,.29,.28,.76,.29,1.06,.02l6.96-6.18c.25-.24,6.1-5.48,16.21,1.17-1.92,.83-3.52,2.44-5.09,4.01-.69,.7-1.36,1.37-2.03,1.95-.59,.33-1.18,.74-1.74,1.26-1.47,.81-3.05,.96-4.98-.19-1.72-1.04-1.46-2.99-.86-4.05,.68-1.2,2.07-1.65,3.18-1.02,1.14,.65,1.55,2.11,.9,3.25-.21,.38-.08,.85,.3,1.06,.37,.21,.85,.08,1.06-.3,1.07-1.89,.4-4.3-1.49-5.37-1.87-1.05-4.19-.35-5.3,1.62-1.08,1.92-.96,4.73,1.41,6.15,1.26,.76,2.42,1.07,3.49,1.07,1.14,0,2.18-.36,3.15-.92,0,0,.02-.01,.03-.02,.59-.35,1.16-.76,1.7-1.22,1.76-.94,3.54-1.02,4.59-.96,1.82,.12,3.49,.77,4.24,1.68,.7,.84,1.01,1.8,.9,2.78-.11,1-.65,1.96-1.45,2.58-2.2,1.69-3.7,.17-3.87-.01-.29-.32-.77-.35-1.1-.07-.32,.29-.35,.78-.07,1.1,.02,.02,1.21,1.34,3.05,1.34,.86,0,1.86-.29,2.94-1.12,1.15-.88,1.9-2.21,2.05-3.64,.16-1.42-.27-2.78-1.25-3.95-1.03-1.23-3.07-2.09-5.34-2.23-.56-.04-1.3-.03-2.14,.08,1.73-1.73,3.52-3.45,5.6-3.78,.31-.05,.56-.28,.63-.59,.07-.3-.05-.63-.3-.81-3.43-2.53-8.69-5.33-14.21-4.35-2.31,.41-3.9,1.35-4.7,1.91,.57-.8,1.51-2.4,1.91-4.7,.98-5.52-1.83-10.77-4.35-14.21-.19-.25-.51-.37-.81-.3-.31,.08-.54,.33-.59,.63-.3,1.88-1.73,3.52-3.28,5.09,.17-.98,.18-1.85,.14-2.5-.14-2.26-1-4.31-2.23-5.34-1.17-.97-2.53-1.4-3.95-1.25-1.43,.16-2.76,.91-3.64,2.05-2.63,3.41,.18,5.96,.21,5.99Z"/><path class="d" d="M43.94,6.83H1806.58c.43,0,.78-.29,.78-.72s-.35-.72-.78-.72H43.94c-.43,0-.78,.29-.78,.72s.35,.72,.78,.72Z"/><path class="d" d="M43.94,1018.3H1806.58c.43,0,.78-.29,.78-.72s-.35-.72-.78-.72H43.94c-.43,0-.78,.29-.78,.72s.35,.72,.78,.72Z"/><path class="d" d="M4.21,45.47V977.71c0,.43,.29,.78,.72,.78s.72-.35,.72-.78V45.47c0-.43-.29-.78-.72-.78s-.72,.35-.72,.78Z"/><path class="d" d="M1843.9,1001.24c-.43,0-.72,.35-.72,.78v13.39h-12.51c-.43,0-.78,.29-.78,.72s.35,.72,.78,.72h13.87c.43,0,.09-.53,.09-.96v-13.87c0-.43-.29-.78-.72-.78Z"/><path class="d" d="M1829.48,6.11c0,.43,.35,.72,.78,.72h12.91v13.14c0,.43,.29,.78,.72,.78s.72-.35,.72-.78V6.1c0-.43-.06-.71-.49-.71h-13.87c-.43,0-.78,.29-.78,.72Z"/><path class="d" d="M1844.62,976.77V44.53c0-.43-.29-.78-.72-.78s-.72,.35-.72,.78V976.77c0,.43,.29,.78,.72,.78s.72-.35,.72-.78Z"/><path class="d" d="M6.62,992.11c.2,0,.43,.02,.67,.02,.43,0,.93-.03,1.46-.1-1.73,1.73-3.52,3.45-5.6,3.78-.31,.05-.56,.28-.64,.58-.07,.31,.04,.63,.3,.81,3.43,2.52,8.69,5.33,14.21,4.35,2.31-.41,3.9-1.34,4.7-1.91-.57,.8-1.51,2.4-1.91,4.7-.98,5.52,1.83,10.77,4.35,14.21,.15,.2,.38,.32,.63,.32,.06,0,.12,0,.19-.02,.31-.08,.54-.33,.59-.63,.3-1.88,1.73-3.52,3.28-5.09-.17,.98-.18,1.85-.14,2.49,.14,2.27,1,4.31,2.23,5.34,1.01,.84,2.17,1.28,3.38,1.28,.19,0,.38-.01,.57-.03,1.43-.16,2.76-.91,3.64-2.05,2.63-3.41-.19-5.96-.22-5.99-.32-.28-.81-.25-1.09,.07-.29,.32-.26,.81,.06,1.1,.18,.16,1.71,1.67,.02,3.87-.62,.8-1.58,1.35-2.58,1.45-.98,.11-1.95-.2-2.78-.9-.9-.75-1.56-2.42-1.67-4.24-.08-1.2,.03-3.35,1.4-5.32,.24-.27,.46-.56,.68-.84,0,0,0-.01,.02-.02,.04-.05,.07-.1,.1-.15,1.5-2.09,2.22-4.49,.41-7.51-1.42-2.37-4.23-2.5-6.15-1.41-1.96,1.11-2.67,3.44-1.61,5.3,.52,.92,1.36,1.58,2.38,1.86,1.01,.28,2.08,.15,3-.37,.37-.21,.51-.69,.29-1.06-.21-.37-.69-.51-1.06-.29-.55,.31-1.2,.39-1.81,.22-.61-.17-1.13-.57-1.44-1.12-.63-1.11-.17-2.5,1.02-3.18,1.06-.6,3.02-.86,4.05,.86,1.38,2.3,.9,4.1-.35,5.83-.29,.32-.56,.64-.78,.97-.57,.64-1.21,1.29-1.88,1.95-1.57,1.56-3.18,3.17-4.01,5.09-6.65-10.11-1.41-15.95-1.17-16.21,.01-.01,.02-.02,.03-.03l5.96-7.14c.26-.31,.24-.77-.06-1.06-.29-.28-.75-.29-1.06-.02l-6.96,6.18c-.25,.24-6.1,5.49-16.21-1.17,1.92-.83,3.52-2.44,5.09-4.01,.69-.69,1.35-1.36,2.02-1.94,.59-.33,1.19-.75,1.76-1.27,1.47-.81,3.05-.96,4.97,.2,1.73,1.04,1.46,2.99,.86,4.05-.68,1.2-2.07,1.65-3.18,1.03-1.15-.65-1.55-2.11-.9-3.25,.21-.38,.08-.85-.29-1.06-.38-.21-.85-.08-1.06,.29-1.07,1.89-.4,4.31,1.49,5.37,1.87,1.06,4.19,.35,5.3-1.62,1.09-1.92,.96-4.73-1.41-6.15-3.45-2.07-6.1-.84-8.38,1.1-1.76,.94-3.54,1.02-4.59,.95-1.82-.12-3.49-.77-4.24-1.68-.7-.83-1.01-1.79-.9-2.78,.11-1,.65-1.96,1.46-2.58,2.2-1.69,3.71-.17,3.87,.02,.29,.32,.78,.35,1.1,.06,.32-.28,.35-.77,.07-1.1-.02-.03-2.57-2.85-5.99-.22-1.15,.88-1.9,2.21-2.05,3.64-.16,1.42,.28,2.78,1.25,3.95,1.03,1.23,3.07,2.09,5.34,2.23Z"/><path class="d" d="M1813,1015.33c.32-.29,.35-.78,.06-1.1s-.78-.35-1.1-.07c-.03,.03-2.84,2.58-.21,5.99,.88,1.15,2.21,1.9,3.64,2.05,.19,.02,.38,.03,.56,.03,1.21,0,2.37-.44,3.39-1.28,1.23-1.03,2.09-3.07,2.23-5.34,.04-.64,.04-1.52-.14-2.5,1.55,1.57,2.98,3.22,3.28,5.09,.05,.31,.28,.56,.59,.63,.06,.01,.12,.02,.18,.02,.24,0,.48-.11,.63-.32,2.52-3.43,5.33-8.69,4.35-14.21-.41-2.3-1.34-3.9-1.91-4.7,.8,.57,2.4,1.51,4.7,1.91,5.52,.98,10.77-1.83,14.21-4.35,.25-.18,.37-.51,.3-.81-.07-.3-.33-.53-.63-.58-2.08-.33-3.87-2.05-5.6-3.78,.53,.07,1.03,.1,1.46,.1,.25,0,.47-.01,.67-.02,2.26-.14,4.31-1,5.34-2.23,.97-1.17,1.4-2.53,1.25-3.95-.16-1.43-.9-2.76-2.05-3.64-3.41-2.63-5.96,.19-5.99,.22-.28,.32-.25,.81,.07,1.1,.32,.29,.81,.26,1.1-.07,.06-.07,1.6-1.76,3.87-.01,.8,.62,1.35,1.58,1.45,2.58,.11,.98-.2,1.94-.9,2.78-.75,.9-2.42,1.56-4.24,1.68-1.05,.07-2.83-.01-4.59-.95-2.29-1.93-4.93-3.17-8.38-1.1-2.37,1.43-2.49,4.23-1.41,6.15,1.11,1.96,3.44,2.67,5.3,1.62,1.89-1.07,2.56-3.48,1.49-5.37-.22-.37-.69-.51-1.06-.29-.38,.21-.51,.69-.3,1.06,.65,1.14,.24,2.6-.9,3.25-1.11,.63-2.5,.17-3.18-1.03-.6-1.06-.86-3.01,.86-4.05,1.92-1.15,3.5-1.01,4.98-.2,.57,.52,1.16,.94,1.75,1.27,.67,.58,1.33,1.25,2.02,1.94,1.56,1.57,3.17,3.18,5.09,4.01-10.11,6.66-15.96,1.41-16.22,1.16l-6.94-6.17c-.3-.27-.77-.26-1.06,.02-.29,.29-.32,.75-.05,1.06l5.96,7.14s.02,.02,.03,.03c.24,.26,5.49,6.1-1.17,16.21-.83-1.92-2.44-3.52-4.01-5.09-.67-.66-1.31-1.31-1.88-1.95-.23-.33-.49-.65-.78-.98-1.25-1.72-1.73-3.53-.35-5.83,1.04-1.72,2.99-1.45,4.05-.86,.58,.33,1,.84,1.19,1.44,.19,.59,.13,1.21-.17,1.75-.31,.55-.82,.95-1.44,1.12-.61,.17-1.25,.09-1.81-.22-.38-.21-.85-.08-1.06,.29-.21,.38-.08,.85,.3,1.06,.92,.52,1.98,.65,2.99,.37,1.02-.28,1.86-.94,2.38-1.86,.52-.92,.62-1.98,.3-2.99-.31-.97-.99-1.79-1.91-2.31-1.92-1.08-4.73-.96-6.16,1.41-1.81,3.02-1.09,5.42,.41,7.51,.03,.05,.07,.1,.11,.15h.01c.22,.3,.44,.58,.68,.86,1.37,1.98,1.48,4.13,1.4,5.32-.11,1.82-.77,3.49-1.67,4.24-.84,.69-1.79,1-2.78,.9-.99-.11-1.96-.65-2.58-1.45-1.7-2.2-.17-3.71,.02-3.87Z"/></g></g></g></svg>